<?xml version="1.0" encoding="utf-8"?>
<!-- Generator: Adobe Illustrator 15.1.0, SVG Export Plug-In . SVG Version: 6.00 Build 0)  -->
<!DOCTYPE svg PUBLIC "-//W3C//DTD SVG 1.1//EN" "http://www.w3.org/Graphics/SVG/1.1/DTD/svg11.dtd">
<svg version="1.1" id="Layer_1" xmlns="http://www.w3.org/2000/svg" xmlns:xlink="http://www.w3.org/1999/xlink" x="0px" y="0px"
	 width="1280px" height="720px" viewBox="0 0 1280 720" enable-background="new 0 0 1280 720" xml:space="preserve">
<path fill="#FFFFFF" d="M416.7,394.8h63v273h-63V394.8z M416.7,42h63v274.4h-63V42z M800.3,399h63v273h-63V399z M800.3,43.4h63v273
	h-63V43.4z M813.423,375.9H672.2V324.8h97.896L813.423,375.9z M472.175,324.8h141.225V375.9h-97.897L472.175,324.8z"/>
<polygon fill="#FFFFFF" points="613.216,375.833 579.617,375.833 579.617,478.765 439.867,350.246 612.148,190.028 611.972,125.078 
	368.575,349.914 368.579,350.96 612.961,574.484 613.064,515.3 613.216,515.3 "/>
<polygon fill="#FFFFFF" points="672.027,134.382 671.852,199.333 672.018,199.487 672.018,324.5 705.617,324.5 705.617,230.735 
	844.131,359.551 670.926,518.839 671.037,583.788 915.422,360.265 915.426,359.219 "/>
</svg>
